<svg width="29" height="30" viewBox="0 0 29 30" fill="none" xmlns="http://www.w3.org/2000/svg">
<path fill-rule="evenodd" clip-rule="evenodd" d="M6.6767 14.7745C6.6767 13.8501 6.83014 12.9637 7.10433 12.1324L2.30766 8.46967C1.37278 10.3677 0.846191 12.5065 0.846191 14.7745C0.846191 17.0408 1.37234 19.178 2.30565 21.0749L7.09966 17.405C6.82814 16.5775 6.6767 15.6945 6.6767 14.7745Z" fill="#FBBC05"/>
<path fill-rule="evenodd" clip-rule="evenodd" d="M15.0985 6.36461C17.1068 6.36461 18.9208 7.07622 20.346 8.24059L24.492 4.10037C21.9656 1.90083 18.7264 0.542328 15.0985 0.542328C9.46617 0.542328 4.62546 3.76324 2.30762 8.46964L7.10407 12.1324C8.20929 8.77763 11.3597 6.36461 15.0985 6.36461Z" fill="#EA4335"/>
<path fill-rule="evenodd" clip-rule="evenodd" d="M15.0985 23.1843C11.3599 23.1843 8.20951 20.7713 7.1043 17.4165L2.30762 21.0786C4.62546 25.7857 9.46617 29.0066 15.0985 29.0066C18.5747 29.0066 21.8937 27.7722 24.3846 25.4595L19.8316 21.9397C18.5469 22.7489 16.9292 23.1843 15.0985 23.1843Z" fill="#34A853"/>
<path fill-rule="evenodd" clip-rule="evenodd" d="M28.703 14.7744C28.703 13.9334 28.5734 13.0277 28.379 12.1869H15.0986V17.6856H22.7431C22.3608 19.5604 21.3205 21.0017 19.8317 21.9397L24.3847 25.4595C27.0012 23.0311 28.703 19.4135 28.703 14.7744Z" fill="#4285F4"/>
</svg>
