<svg xmlns="http://www.w3.org/2000/svg" xmlns:xlink="http://www.w3.org/1999/xlink" viewBox="0 0 332.41 227.28"><defs><style>.cls-1{fill:url(#radial-gradient);}.cls-2{mask:url(#mask);}.cls-3{opacity:0.2;}.cls-12,.cls-4{fill:none;stroke-miterlimit:10;}.cls-4{stroke:#000;stroke-width:0.5px;}.cls-5{fill:#ff654c;}.cls-6{fill:#e9e9e9;}.cls-7{fill:#ffccc3;}.cls-8{fill:#aa4333;}.cls-9{fill:#ff7976;}.cls-10{fill:#02121e;}.cls-11{fill:#fff;}.cls-12{stroke:#fff;stroke-width:0.25px;}</style><radialGradient id="radial-gradient" cx="166.21" cy="113.64" r="100.59" gradientUnits="userSpaceOnUse"><stop offset="0" stop-color="#fff"/><stop offset="0.04" stop-color="#f0f0f0"/><stop offset="0.25" stop-color="#a8a8a8"/><stop offset="0.45" stop-color="#6c6c6c"/><stop offset="0.63" stop-color="#3e3e3e"/><stop offset="0.78" stop-color="#1c1c1c"/><stop offset="0.91" stop-color="#070707"/><stop offset="1"/></radialGradient><mask id="mask" x="0" y="0" width="332.41" height="227.28" maskUnits="userSpaceOnUse"><circle class="cls-1" cx="166.21" cy="113.64" r="100.59"/></mask></defs><g id="Layer_2" data-name="Layer 2"><g id="_1" data-name="1"><g class="cls-2"><g class="cls-3"><rect class="cls-4" x="133.02" y="13.17" width="33.19" height="12.92"/><rect class="cls-4" x="166.21" y="13.17" width="33.19" height="12.92"/><rect class="cls-4" x="199.4" y="13.17" width="33.19" height="12.92"/><rect class="cls-4" x="232.59" y="13.17" width="33.19" height="12.92"/><rect class="cls-4" x="265.78" y="13.17" width="33.19" height="12.92"/><rect class="cls-4" x="298.97" y="13.17" width="33.19" height="12.92"/><rect class="cls-4" x="66.63" y="13.17" width="33.19" height="12.92"/><rect class="cls-4" x="99.82" y="13.17" width="33.19" height="12.92"/><rect class="cls-4" x="0.25" y="13.17" width="33.19" height="12.92"/><rect class="cls-4" x="33.44" y="13.17" width="33.19" height="12.92"/><rect class="cls-4" x="149.61" y="0.25" width="33.19" height="12.92"/><rect class="cls-4" x="116.42" y="0.25" width="33.19" height="12.92"/><rect class="cls-4" x="182.8" y="0.25" width="33.19" height="12.92"/><rect class="cls-4" x="50.04" y="0.25" width="33.19" height="12.92"/><rect class="cls-4" x="16.85" y="0.25" width="33.19" height="12.92"/><rect class="cls-4" x="83.23" y="0.25" width="33.19" height="12.92"/><rect class="cls-4" x="249.19" y="0.25" width="33.19" height="12.92"/><rect class="cls-4" x="215.99" y="0.25" width="33.19" height="12.92"/><rect class="cls-4" x="282.38" y="0.25" width="33.19" height="12.92"/><rect class="cls-4" x="133.02" y="38.29" width="33.19" height="12.92"/><rect class="cls-4" x="166.21" y="38.29" width="33.19" height="12.92"/><rect class="cls-4" x="199.4" y="38.29" width="33.19" height="12.92"/><rect class="cls-4" x="232.59" y="38.29" width="33.19" height="12.92"/><rect class="cls-4" x="265.78" y="38.29" width="33.19" height="12.92"/><rect class="cls-4" x="298.97" y="38.29" width="33.19" height="12.92"/><rect class="cls-4" x="66.63" y="38.29" width="33.19" height="12.92"/><rect class="cls-4" x="99.82" y="38.29" width="33.19" height="12.92"/><rect class="cls-4" x="0.25" y="38.29" width="33.19" height="12.92"/><rect class="cls-4" x="33.44" y="38.29" width="33.19" height="12.92"/><rect class="cls-4" x="149.61" y="25.37" width="33.19" height="12.92"/><rect class="cls-4" x="116.42" y="25.37" width="33.19" height="12.92"/><rect class="cls-4" x="182.8" y="25.37" width="33.19" height="12.92"/><rect class="cls-4" x="50.04" y="25.37" width="33.19" height="12.92"/><rect class="cls-4" x="16.85" y="25.37" width="33.19" height="12.92"/><rect class="cls-4" x="83.23" y="25.37" width="33.19" height="12.92"/><rect class="cls-4" x="249.19" y="25.37" width="33.19" height="12.92"/><rect class="cls-4" x="215.99" y="25.37" width="33.19" height="12.92"/><rect class="cls-4" x="282.38" y="25.37" width="33.19" height="12.92"/><rect class="cls-4" x="133.02" y="63.4" width="33.19" height="12.92"/><rect class="cls-4" x="166.21" y="63.4" width="33.19" height="12.92"/><rect class="cls-4" x="199.4" y="63.4" width="33.19" height="12.92"/><rect class="cls-4" x="232.59" y="63.4" width="33.19" height="12.92"/><rect class="cls-4" x="265.78" y="63.4" width="33.19" height="12.92"/><rect class="cls-4" x="298.97" y="63.4" width="33.19" height="12.92"/><rect class="cls-4" x="66.63" y="63.4" width="33.19" height="12.92"/><rect class="cls-4" x="99.82" y="63.4" width="33.19" height="12.92"/><rect class="cls-4" x="0.25" y="63.4" width="33.19" height="12.92"/><rect class="cls-4" x="33.44" y="63.4" width="33.19" height="12.92"/><rect class="cls-4" x="149.61" y="50.49" width="33.19" height="12.92"/><rect class="cls-4" x="116.42" y="50.49" width="33.19" height="12.92"/><rect class="cls-4" x="182.8" y="50.49" width="33.19" height="12.92"/><rect class="cls-4" x="50.04" y="50.49" width="33.19" height="12.92"/><rect class="cls-4" x="16.85" y="50.49" width="33.19" height="12.92"/><rect class="cls-4" x="83.23" y="50.49" width="33.19" height="12.92"/><rect class="cls-4" x="249.19" y="50.49" width="33.19" height="12.92"/><rect class="cls-4" x="215.99" y="50.49" width="33.19" height="12.92"/><rect class="cls-4" x="282.38" y="50.49" width="33.19" height="12.92"/><rect class="cls-4" x="133.02" y="88.52" width="33.19" height="12.92"/><rect class="cls-4" x="166.21" y="88.52" width="33.19" height="12.92"/><rect class="cls-4" x="199.4" y="88.52" width="33.19" height="12.92"/><rect class="cls-4" x="232.59" y="88.52" width="33.19" height="12.92"/><rect class="cls-4" x="265.78" y="88.52" width="33.19" height="12.92"/><rect class="cls-4" x="298.97" y="88.52" width="33.19" height="12.92"/><rect class="cls-4" x="66.63" y="88.52" width="33.19" height="12.92"/><rect class="cls-4" x="99.82" y="88.52" width="33.19" height="12.92"/><rect class="cls-4" x="0.25" y="88.52" width="33.19" height="12.92"/><rect class="cls-4" x="33.44" y="88.52" width="33.19" height="12.92"/><rect class="cls-4" x="149.61" y="75.61" width="33.19" height="12.92"/><rect class="cls-4" x="116.42" y="75.61" width="33.19" height="12.92"/><rect class="cls-4" x="182.8" y="75.61" width="33.19" height="12.92"/><rect class="cls-4" x="50.04" y="75.61" width="33.19" height="12.92"/><rect class="cls-4" x="16.85" y="75.61" width="33.19" height="12.92"/><rect class="cls-4" x="83.23" y="75.61" width="33.19" height="12.92"/><rect class="cls-4" x="249.19" y="75.61" width="33.19" height="12.92"/><rect class="cls-4" x="215.99" y="75.61" width="33.19" height="12.92"/><rect class="cls-4" x="282.38" y="75.61" width="33.19" height="12.92"/><rect class="cls-4" x="133.02" y="113.64" width="33.19" height="12.92"/><rect class="cls-4" x="166.21" y="113.64" width="33.19" height="12.92"/><rect class="cls-4" x="199.4" y="113.64" width="33.19" height="12.92"/><rect class="cls-4" x="232.59" y="113.64" width="33.19" height="12.92"/><rect class="cls-4" x="265.78" y="113.64" width="33.19" height="12.92"/><rect class="cls-4" x="298.97" y="113.64" width="33.19" height="12.92"/><rect class="cls-4" x="66.63" y="113.64" width="33.19" height="12.92"/><rect class="cls-4" x="99.82" y="113.64" width="33.19" height="12.92"/><rect class="cls-4" x="0.25" y="113.64" width="33.19" height="12.92"/><rect class="cls-4" x="33.44" y="113.64" width="33.19" height="12.92"/><rect class="cls-4" x="149.61" y="100.72" width="33.19" height="12.92"/><rect class="cls-4" x="116.42" y="100.72" width="33.19" height="12.92"/><rect class="cls-4" x="182.8" y="100.72" width="33.19" height="12.92"/><rect class="cls-4" x="50.04" y="100.72" width="33.19" height="12.92"/><rect class="cls-4" x="16.85" y="100.72" width="33.19" height="12.92"/><rect class="cls-4" x="83.23" y="100.72" width="33.19" height="12.92"/><rect class="cls-4" x="249.19" y="100.72" width="33.19" height="12.92"/><rect class="cls-4" x="215.99" y="100.72" width="33.19" height="12.92"/><rect class="cls-4" x="282.38" y="100.72" width="33.19" height="12.92"/><rect class="cls-4" x="133.02" y="138.76" width="33.19" height="12.92"/><rect class="cls-4" x="166.21" y="138.76" width="33.19" height="12.92"/><rect class="cls-4" x="199.4" y="138.76" width="33.19" height="12.92"/><rect class="cls-4" x="232.59" y="138.76" width="33.19" height="12.92"/><rect class="cls-4" x="265.78" y="138.76" width="33.19" height="12.92"/><rect class="cls-4" x="298.97" y="138.76" width="33.19" height="12.92"/><rect class="cls-4" x="66.63" y="138.76" width="33.19" height="12.92"/><rect class="cls-4" x="99.82" y="138.76" width="33.19" height="12.92"/><rect class="cls-4" x="0.25" y="138.76" width="33.19" height="12.92"/><rect class="cls-4" x="33.44" y="138.76" width="33.19" height="12.92"/><rect class="cls-4" x="149.61" y="125.84" width="33.19" height="12.92"/><rect class="cls-4" x="116.42" y="125.84" width="33.19" height="12.92"/><rect class="cls-4" x="182.8" y="125.84" width="33.19" height="12.92"/><rect class="cls-4" x="50.04" y="125.84" width="33.19" height="12.92"/><rect class="cls-4" x="16.85" y="125.84" width="33.19" height="12.92"/><rect class="cls-4" x="83.23" y="125.84" width="33.19" height="12.92"/><rect class="cls-4" x="249.19" y="125.84" width="33.19" height="12.92"/><rect class="cls-4" x="215.99" y="125.84" width="33.19" height="12.92"/><rect class="cls-4" x="282.38" y="125.84" width="33.19" height="12.92"/><rect class="cls-4" x="133.02" y="163.88" width="33.19" height="12.92"/><rect class="cls-4" x="166.21" y="163.88" width="33.19" height="12.92"/><rect class="cls-4" x="199.4" y="163.88" width="33.19" height="12.92"/><rect class="cls-4" x="232.59" y="163.88" width="33.19" height="12.92"/><rect class="cls-4" x="265.78" y="163.88" width="33.19" height="12.92"/><rect class="cls-4" x="298.97" y="163.88" width="33.19" height="12.92"/><rect class="cls-4" x="66.63" y="163.88" width="33.19" height="12.92"/><rect class="cls-4" x="99.82" y="163.88" width="33.19" height="12.92"/><rect class="cls-4" x="0.25" y="163.88" width="33.19" height="12.92"/><rect class="cls-4" x="33.44" y="163.88" width="33.19" height="12.92"/><rect class="cls-4" x="149.61" y="150.96" width="33.19" height="12.92"/><rect class="cls-4" x="116.42" y="150.96" width="33.19" height="12.92"/><rect class="cls-4" x="182.8" y="150.96" width="33.19" height="12.92"/><rect class="cls-4" x="50.04" y="150.96" width="33.19" height="12.92"/><rect class="cls-4" x="16.85" y="150.96" width="33.19" height="12.92"/><rect class="cls-4" x="83.23" y="150.96" width="33.19" height="12.92"/><rect class="cls-4" x="249.19" y="150.96" width="33.19" height="12.92"/><rect class="cls-4" x="215.99" y="150.96" width="33.19" height="12.92"/><rect class="cls-4" x="282.38" y="150.96" width="33.19" height="12.92"/><rect class="cls-4" x="133.02" y="189" width="33.19" height="12.92"/><rect class="cls-4" x="166.21" y="189" width="33.19" height="12.92"/><rect class="cls-4" x="199.4" y="189" width="33.19" height="12.92"/><rect class="cls-4" x="232.59" y="189" width="33.19" height="12.92"/><rect class="cls-4" x="265.78" y="189" width="33.19" height="12.92"/><rect class="cls-4" x="298.97" y="189" width="33.19" height="12.92"/><rect class="cls-4" x="66.63" y="189" width="33.19" height="12.92"/><rect class="cls-4" x="99.82" y="189" width="33.19" height="12.92"/><rect class="cls-4" x="0.25" y="189" width="33.19" height="12.92"/><rect class="cls-4" x="33.44" y="189" width="33.19" height="12.92"/><rect class="cls-4" x="149.61" y="176.08" width="33.19" height="12.92"/><rect class="cls-4" x="116.42" y="176.08" width="33.19" height="12.92"/><rect class="cls-4" x="182.8" y="176.08" width="33.19" height="12.92"/><rect class="cls-4" x="50.04" y="176.08" width="33.19" height="12.92"/><rect class="cls-4" x="16.85" y="176.08" width="33.19" height="12.92"/><rect class="cls-4" x="83.23" y="176.08" width="33.19" height="12.92"/><rect class="cls-4" x="249.19" y="176.08" width="33.19" height="12.92"/><rect class="cls-4" x="215.99" y="176.08" width="33.19" height="12.92"/><rect class="cls-4" x="282.38" y="176.08" width="33.19" height="12.92"/><rect class="cls-4" x="133.02" y="214.12" width="33.19" height="12.92"/><rect class="cls-4" x="166.21" y="214.12" width="33.19" height="12.92"/><rect class="cls-4" x="199.4" y="214.12" width="33.19" height="12.92"/><rect class="cls-4" x="232.59" y="214.12" width="33.19" height="12.92"/><rect class="cls-4" x="265.78" y="214.12" width="33.19" height="12.92"/><rect class="cls-4" x="298.97" y="214.12" width="33.19" height="12.92"/><rect class="cls-4" x="66.63" y="214.12" width="33.19" height="12.92"/><rect class="cls-4" x="99.82" y="214.12" width="33.19" height="12.92"/><rect class="cls-4" x="0.25" y="214.12" width="33.19" height="12.92"/><rect class="cls-4" x="33.44" y="214.12" width="33.19" height="12.92"/><rect class="cls-4" x="149.61" y="201.2" width="33.19" height="12.92"/><rect class="cls-4" x="116.42" y="201.2" width="33.19" height="12.92"/><rect class="cls-4" x="182.8" y="201.2" width="33.19" height="12.92"/><rect class="cls-4" x="50.04" y="201.2" width="33.19" height="12.92"/><rect class="cls-4" x="16.85" y="201.2" width="33.19" height="12.92"/><rect class="cls-4" x="83.23" y="201.2" width="33.19" height="12.92"/><rect class="cls-4" x="249.19" y="201.2" width="33.19" height="12.92"/><rect class="cls-4" x="215.99" y="201.2" width="33.19" height="12.92"/><rect class="cls-4" x="282.38" y="201.2" width="33.19" height="12.92"/></g></g><path class="cls-5" d="M160.1,115.36c-.36,2.53-.7,5.08-1,7.62q-1.19,9.12-2.16,18.27c-.77,7.34-1.42,14.7-1.83,22.07a282.3,282.3,0,0,0,.21,30c.28,5.4.63,10.8,1.22,16.18.05.42.09.85.15,1.27,0,0-1.34,1.06-1.34,1.36s-.09,2.49-.09,2.49.79,1.09,1.09,1.13,8.32-.13,8.32-.13,1.15-.38,1.23-.89a21,21,0,0,0,0-2.41l-.15-.61s9.17-32.45,10-41.54,6.6-46.28,8.69-47.26S171.42,112.51,160.1,115.36Z"/><path class="cls-6" d="M175.93,34.55s-7.83-5.76-14.8,8.73a271.9,271.9,0,0,0-11.37,27.57L169.1,78S192,44.67,175.93,34.55Z"/><path class="cls-7" d="M149.76,70.85c-.73.36-1.73,3.06-2.18,3.87l-2.48,4.42c-1.66,2.94-3.35,5.87-5.16,8.71a96.13,96.13,0,0,1-12.43,15.43c-.47.48-6.64,5.85-6.61,5.94l-2.3,3.31a1.55,1.55,0,0,0-.24,1.29h0a1.58,1.58,0,0,0,1.72,1.18l2.64-.32s2.76-.62,3.63-2l1.67-2.62s33.66-19.63,39.87-32.49C160.78,69.39,149.76,70.85,149.76,70.85Z"/><path class="cls-6" d="M163.83,29.37a28.93,28.93,0,0,1-1.12,7c-1,3-11.67,65.76-2.61,79,26.17,17.49,41.45-.68,41.45-.68s4.64-42.47-4.68-64.56S171,22.68,171,22.68,164.76,27.44,163.83,29.37Z"/><path class="cls-7" d="M171,22.68c-.57-.27-1.36-2-1.71-2.57a12.81,12.81,0,0,1-1.42-3A24.33,24.33,0,0,0,166,12.57a12.82,12.82,0,0,0-3.07-4A4.86,4.86,0,0,0,158,7.88c-2.54.78-6.94,1.78-8,4.68a3.75,3.75,0,0,0-.17,1.63s2.62,5.93,2.1,7.53l1.54.13s1.63,3.51,3,3.64a7,7,0,0,0,3.14-.83l4.32,4.13s-1.25,9.23-1.76,9.47c0,0,7.21-3.2,9.7-5.88S176.51,25.29,171,22.68Z"/><path class="cls-8" d="M146.77,7.52s0-.06,0-.09a6.51,6.51,0,0,1,.61-2,3.51,3.51,0,0,1,2.47-2.18,12.4,12.4,0,0,1,2.28-.11,17.35,17.35,0,0,1,2.28,0c1.54.2,2.8,1.26,4.31,1.57a10.68,10.68,0,0,0,3.74.06s5.61-.77,6.95,1.85.77,5.49,0,6.19.81,2.24.81,2.4-.68,1-.58,1.34,1.43,2.39,1.43,2.39-5.81,0-6.83-1.12.11-5.13-2.13-5.13-1.76,2.87-1.76,2.87-1.66-.93-1.69-2.3-1.77-1.77-2.86-1.33c-.49.2-.94.5-1.42.72a13.62,13.62,0,0,1-2.74.57,2.33,2.33,0,0,0-1.74,1.18c-.4,1.13.94,1.41-3,1.41-1.44,0-2-.86-1.7-2.22a10.13,10.13,0,0,1,.72-1.82A7.4,7.4,0,0,0,146.7,10C146.84,9.19,146.7,8.35,146.77,7.52Z"/><path class="cls-6" d="M175.93,34.55s-9.7-.64-7.78,15.32a270.41,270.41,0,0,0,5.23,29.36l20.17-4.34S195,34.42,175.93,34.55Z"/><path d="M189,45.14a25.12,25.12,0,0,0-5.11-7.23,12.36,12.36,0,0,0-3.67-2.39,13.25,13.25,0,0,0-4.33-1,10.85,10.85,0,0,1,4.47.61,12,12,0,0,1,3.86,2.38,16.91,16.91,0,0,1,2.85,3.53A21.64,21.64,0,0,1,189,45.14Z"/><path class="cls-5" d="M160.1,115.36s4,24.64,6.52,32.3,14.8,40.08,30,56.29a2.64,2.64,0,0,0-.39,2.68c.73,1.3,1.75,2.79,1.75,2.79a3.4,3.4,0,0,0,2.12-.3c2.67-1.62,5.23-3.42,7.83-5.14a2.45,2.45,0,0,0,.5-.34c.9-1.08-.74-3.36-1.57-4a2.59,2.59,0,0,0-1.29-.23q-2.72-9-5.54-18c-2-6.29-3.78-12.62-6.46-18.66a34.2,34.2,0,0,1-3.29-15.24,20.14,20.14,0,0,1,1.57-7c3.66-8.43,7.89-21.37,8.16-24.31C200,116.2,167.76,110.55,160.1,115.36Z"/><path class="cls-9" d="M156.32,215.7v1.1s-5.36,3.32-8.51,4-4.58,1.92-4.19,3.12h22.1l.36-1.37c.44-1.63-.59-3.06-.68-4.63a12.67,12.67,0,0,0-.14-2.62S159.3,213.66,156.32,215.7Z"/><path class="cls-10" d="M165.27,223.1c-.8,0-4.88.14-9.28.31l-7-2.94-1-.4-1.66.86,6.23,2.62-8.9.37-.4.3h23.49S167.16,223.13,165.27,223.1Z"/><path class="cls-9" d="M200.72,209l.62.92s-2.59,5.74-4.83,8.07-2.72,4.14-1.74,4.92l18.34-12.34-.46-1.34c-.55-1.59-2.2-2.21-3.15-3.46-.16-.21-1.41-2.16-1.59-2.1C207.91,203.66,202.05,205.63,200.72,209Z"/><path class="cls-10" d="M212.29,210.13c-.68.44-4,2.83-7.53,5.44L197.31,217l-1.09.26-.9,1.64,6.63-1.31-7.18,5.28-.15.47,19.48-13.12S213.87,209.1,212.29,210.13Z"/><path class="cls-7" d="M173.38,79.23c-.42.69.19,3.51.24,4.43l.3,5.06c.18,3.38.32,6.75.33,10.13a96.65,96.65,0,0,1-2.19,19.69c-.14.65-2.46,8.5-2.38,8.56l4.47,3.62s2-2,2-3.62V124S194,89.35,192.3,75.16C181.9,72.08,173.38,79.23,173.38,79.23Z"/><path d="M192,70.12c-3.09.66-6.2,1.13-9.32,1.61s-6.25.87-9.4,1.12c3.09-.66,6.21-1.13,9.33-1.61S188.82,70.37,192,70.12Z"/><path d="M170,62.54c-.55-2.48-.92-5-1.3-7.49s-.66-5-.81-7.56c.56,2.48.92,5,1.3,7.49S169.85,60,170,62.54Z"/><path class="cls-11" d="M168.16,124.57a25,25,0,0,0,3.53,3.86,15,15,0,0,0,2.12,1.49,11.16,11.16,0,0,0,2.43,1,6.92,6.92,0,0,1-2.6-.61,10.18,10.18,0,0,1-2.27-1.45,12.12,12.12,0,0,1-1.83-2A10.83,10.83,0,0,1,168.16,124.57Z"/><path d="M157.66,210.78a23.39,23.39,0,0,1,3.55,0,22.21,22.21,0,0,1,3.51.46,23.27,23.27,0,0,1-3.54,0A22.18,22.18,0,0,1,157.66,210.78Z"/><path class="cls-11" d="M198.38,203.5a23.88,23.88,0,0,1,3-1.95,22.88,22.88,0,0,1,3.2-1.52,21.81,21.81,0,0,1-2.95,1.95A22.88,22.88,0,0,1,198.38,203.5Z"/><path class="cls-12" d="M181.9,114.46c.59,4.77-.67,9.54-1.74,14.23-1.73,7.65-3,15.65-1.24,23.3A62.34,62.34,0,0,0,183,163.07l15.14,34.46"/><line class="cls-4" x1="63.92" y1="224.22" x2="269.51" y2="224.22"/></g></g></svg>