<svg xmlns="http://www.w3.org/2000/svg" viewBox="0 0 408.12 253.56"><defs><style>.cls-1{fill:#ff7976;}.cls-2{fill:#e0b20a;}.cls-3{fill:#f6b20a;}.cls-4{fill:#60e635;}.cls-5{fill:#409923;}.cls-6{fill:#95ee78;}.cls-7{fill:#caf7bc;}.cls-8{fill:#204d12;}</style></defs><g id="Layer_2" data-name="Layer 2"><g id="_3" data-name="3"><path class="cls-1" d="M80.26,130.44s30.22-28.34,33.3-31.18c5.69-5.25,11.17-10.72,17-15.79,2.13-1.83,5.4-3.5,6.39-6.07.84-2.19,0-4.52,2.91-5.41,4.25-1.3,3.43,2.53,3.43,2.53s15.46-3.72,16.41-.17-3.48,4.84-3.48,4.84,5.19-.24,4.42,2.71-2.89,2-2.89,2S161,85.74,159.67,87s-2.07,1.24-2.07,1.24,2.72,3.9-.17,5.49-12,.59-17.42,8.39-29.52,46.05-34,51.48S80.26,130.44,80.26,130.44Z"/><path class="cls-1" d="M322.73,130.44s-30.23-28.34-33.3-31.18c-5.69-5.25-11.17-10.72-17-15.79C270.27,81.64,267,80,266,77.4c-.84-2.19,0-4.52-2.91-5.41-4.25-1.3-3.43,2.53-3.43,2.53s-15.47-3.72-16.41-.17,3.48,4.84,3.48,4.84-5.19-.24-4.43,2.71,2.9,2,2.9,2S242,85.74,243.32,87s2.06,1.24,2.06,1.24-2.71,3.9.18,5.49,12,.59,17.42,8.39,29.52,46.05,34,51.48S322.73,130.44,322.73,130.44Z"/><path class="cls-2" d="M175,98.13a27.85,27.85,0,0,1-15.79,3.67c-7.09-.52-10.35-8.33-12.12-14.12a58.42,58.42,0,0,1-2.2-10.78c-.41-3.65-1-8.4,2-11.12a22.21,22.21,0,0,1,6.38-3.68,58.91,58.91,0,0,1,10-3.15l0,0c.59,2.28,1.26,4.64,1.94,7.07-.22,0-.44,0-.67.07-6.16.67-13,3.68-13,10.81,0,9.08,4.2,17.75,14.55,16.33.54-.07,6.72-1.17,6.94-1.17l0,0C173.74,94.16,174.37,96.17,175,98.13Z"/><path class="cls-2" d="M257,74c-.08,1-.19,2-.28,2.94a58.42,58.42,0,0,1-2.2,10.78,36.39,36.39,0,0,1-3.07,7.44c-2,3.5-4.85,6.36-9.05,6.68a28.82,28.82,0,0,1-11.17-1.5c.48-2.42.92-4.94,1.37-7.53,1.38.22,2.66.44,2.88.48a11.64,11.64,0,0,0,8.75-1.87c4-2.9,5.79-8.6,5.81-14.46a9.21,9.21,0,0,0-.85-4.06c-2-4.25-7.27-6.23-12.12-6.75-.22,0-.44,0-.66-.07h-.06c.28-2.33.52-4.57.76-6.7.76-.26,1.24-.39,1.24-.39a58.84,58.84,0,0,1,10,3.15,22.21,22.21,0,0,1,6.38,3.68C257,67.81,257.19,71,257,74Z"/><path class="cls-3" d="M200.71,31.37a81,81,0,0,0-16.8,1.74c-7.28,1.52-20.18,2.85-24.31,10.17.73,4.11,2,9.57,3.67,15.69.59,2.28,1.26,4.64,1.94,7.07,2.39,8.41,5.2,17.55,7.88,26.06.65,2.06,1.28,4.07,1.92,6,4.63,14.45,8.46,25.7,8.46,25.7a125.12,125.12,0,0,0,12.95,2.58v10.32a7,7,0,0,0,.4,1.37c-8.67.59-14.85,2.12-14.85,3.91,0,2.3,10.22,4.17,22.83,4.17s22.83-1.87,22.83-4.17c0-1.95-7.3-3.58-17.15-4a4.67,4.67,0,0,0,.14-.45V127.39l-.06,0c5.1-.19,9.72-1.15,12.57-3.52,3.09-2.55,5.81-11.93,8.09-23.53.48-2.42.92-4.94,1.37-7.53,1.49-8.83,2.75-18.3,3.75-26.73.28-2.33.52-4.57.76-6.7,1.22-11.1,1.87-19.11,1.87-19.11.18-2.35-15.83-5.64-17.76-6.15A80.39,80.39,0,0,0,200.71,31.37Z"/><path class="cls-4" d="M150.76,31.11a.71.71,0,0,1-.69-.56,31.83,31.83,0,0,1-.42-3.57c0-.22-.07-.28-.07-.28a2.62,2.62,0,0,0-1.58.53.7.7,0,0,1-.89-.13.67.67,0,0,1,0-.89c.84-1,1.3-2.22,1.08-2.41-.4-.16-2.25.79-3.78,2a.69.69,0,0,1-1-1,5.09,5.09,0,0,0,.42-3.29,2.85,2.85,0,0,0-1.12-1.91c-.33-.2-.5-.23-.55-.21a2.18,2.18,0,0,0-.22,1.28.69.69,0,0,1-.64.75.71.71,0,0,1-.74-.64c0-.32-.11-2,.89-2.58a1.81,1.81,0,0,1,2,.23,4.06,4.06,0,0,1,1.74,2.83,7.12,7.12,0,0,1,.06,2.21c1.4-.85,3-1.48,3.84-.72a2.1,2.1,0,0,1,.18,2.54,1.78,1.78,0,0,1,.94.17A1.55,1.55,0,0,1,151,26.9a28.77,28.77,0,0,0,.41,3.39.69.69,0,0,1-.55.81Z"/><path class="cls-5" d="M121.67,33.31a.53.53,0,0,1-.61-.25A23.26,23.26,0,0,1,120,30.59c-.06-.16-.11-.19-.11-.19s-.64.29-1,.72a.51.51,0,0,1-.66.11.52.52,0,0,1-.21-.64c.37-.93.45-1.87.25-2s-1.44,1.05-2.28,2.23a.52.52,0,0,1-.92-.47,3.74,3.74,0,0,0-.4-2.45,2.1,2.1,0,0,0-1.22-1.13c-.28-.08-.41-.06-.44,0a1.58,1.58,0,0,0,.12,1,.52.52,0,1,1-1,.38c-.09-.23-.5-1.4.08-2.05a1.36,1.36,0,0,1,1.48-.26,3.06,3.06,0,0,1,1.87,1.65,5.47,5.47,0,0,1,.52,1.57c.82-.91,1.82-1.7,2.59-1.35s.78,1.07.69,1.79a1.32,1.32,0,0,1,.71-.09,1.2,1.2,0,0,1,.9.85,19.57,19.57,0,0,0,1,2.34.53.53,0,0,1-.22.71Z"/><path class="cls-6" d="M145.7,55.08a.41.41,0,0,1-.48-.2,18.76,18.76,0,0,1-.86-2c0-.13-.08-.15-.08-.15s-.52.22-.81.57a.41.41,0,0,1-.7-.42c.3-.74.36-1.49.2-1.56s-1.14.84-1.81,1.77a.41.41,0,0,1-.72-.37,3.06,3.06,0,0,0-.33-1.95,1.66,1.66,0,0,0-1-.89c-.23-.06-.33-.05-.35,0a1.27,1.27,0,0,0,.09.77.41.41,0,0,1-.23.53.43.43,0,0,1-.54-.23c-.07-.18-.4-1.11.06-1.63a1.1,1.1,0,0,1,1.18-.21,2.44,2.44,0,0,1,1.48,1.31,4.19,4.19,0,0,1,.42,1.25c.65-.73,1.44-1.35,2.06-1.07s.61.85.54,1.42a1,1,0,0,1,.56-.07.94.94,0,0,1,.72.67,15.08,15.08,0,0,0,.81,1.86.41.41,0,0,1-.17.56Z"/><path class="cls-4" d="M115.72,66.92a.41.41,0,0,1,.51-.12,18.37,18.37,0,0,1,1.85,1.07.36.36,0,0,0,.15.07,1.58,1.58,0,0,0,.32-1,.41.41,0,0,1,.81-.07c.2.78.59,1.42.76,1.38a5.05,5.05,0,0,0,.41-2.51.41.41,0,0,1,.8-.12A3,3,0,0,0,122.75,67a1.66,1.66,0,0,0,1.31.15c.21-.09.29-.16.3-.19s-.27-.39-.54-.56a.42.42,0,0,1-.13-.57.43.43,0,0,1,.57-.13c.17.11,1,.66.92,1.35,0,.26-.19.63-.82.87a2.44,2.44,0,0,1-2-.18,4.3,4.3,0,0,1-1.08-.76c-.09,1-.36,2-1,2.09s-1-.32-1.28-.82a1.1,1.1,0,0,1-.41.39.94.94,0,0,1-1-.12c-.94-.61-1.76-1-1.76-1a.42.42,0,0,1-.2-.55Z"/><path class="cls-4" d="M102.12,83.14a.41.41,0,0,0-.51-.13,21,21,0,0,0-1.85,1.07.36.36,0,0,1-.16.07,1.52,1.52,0,0,1-.31-.94.41.41,0,0,0-.38-.38.4.4,0,0,0-.43.31c-.2.77-.59,1.41-.76,1.37a5,5,0,0,1-.41-2.5.41.41,0,0,0-.35-.42.42.42,0,0,0-.46.29,3,3,0,0,1-1.41,1.37,1.66,1.66,0,0,1-1.31.15.59.59,0,0,1-.3-.18c0-.11.27-.4.53-.57a.41.41,0,0,0,.13-.57.42.42,0,0,0-.57-.13c-.16.11-1,.66-.91,1.35,0,.26.19.63.82.87a2.4,2.4,0,0,0,2-.18,4.3,4.3,0,0,0,1.08-.76c.09,1,.35,2,1,2.09s1-.32,1.28-.82a1,1,0,0,0,.41.39.94.94,0,0,0,1-.12c.94-.61,1.75-1,1.76-1a.4.4,0,0,0,.19-.55A.21.21,0,0,0,102.12,83.14Z"/><path class="cls-6" d="M198.54,20a.72.72,0,0,1-.55-.27,1.54,1.54,0,0,1-.33-1.61,1.78,1.78,0,0,1,.83-.84,2.67,2.67,0,0,1-.65-1.72c0-1,1.16-1.87,2.1-2.49a8.63,8.63,0,0,1-1.75-3.28.7.7,0,0,1,1.33-.42c.43,1.34,1.17,2.71,1.53,2.82h0a.79.79,0,0,1,.84.56c.18.59-.29.89-1,1.36-1.1.72-1.66,1.21-1.66,1.45,0,.86,1,1.39,1,1.4a.7.7,0,0,1-.24,1.3,1.87,1.87,0,0,0-1,.4h0s0,.08.15.22a.69.69,0,0,1-.13,1A.66.66,0,0,1,198.54,20Zm2.5-6.42h0Z"/><path class="cls-7" d="M218.89,26h0a.7.7,0,0,1-.64-.76,1.72,1.72,0,0,1,1.18-1.41,3.19,3.19,0,0,0-.2-.33c-.31-.48-.64-1-.31-1.48a.87.87,0,0,1,1-.33c.31.06.93-.66,1.26-1.32a.69.69,0,0,1,.93-.31.7.7,0,0,1,.31.93,4.21,4.21,0,0,1-1.86,2,1.7,1.7,0,0,1,.36,1.5,1,1,0,0,1-.73.59c-.48.11-.53.32-.54.32A.66.66,0,0,1,218.89,26Z"/><path class="cls-4" d="M222.7,5.46a.72.72,0,0,1-.59-.31.69.69,0,0,1,.21-1A4.64,4.64,0,0,0,221.85,3a1,1,0,0,1-.06-.74c.28-.83,1.94-1.74,2.91-2.21a.69.69,0,0,1,.92.32.69.69,0,0,1-.32.93,10,10,0,0,0-2.1,1.3c.34.7.89,2.07-.13,2.73A.62.62,0,0,1,222.7,5.46Zm.38-3.08Z"/><path class="cls-6" d="M252.84,28.69a.69.69,0,0,1-.37-.1l-1.53-.94a.7.7,0,0,1-.23-1,.69.69,0,0,1,.95-.22l.88.53a6.22,6.22,0,0,0,.55-1.7,1.24,1.24,0,0,1,.44-1c.55-.45,1.37-.26,2.41,0A3,3,0,0,0,256,22.8a.7.7,0,0,1,.57-.8.71.71,0,0,1,.8.57c.07.47.26,2-.49,2.73a1.32,1.32,0,0,1-1.23.31,9.86,9.86,0,0,0-1.17-.22,10.38,10.38,0,0,1-1,2.92.76.76,0,0,1-.43.36Z"/><path class="cls-6" d="M254.61,46a.54.54,0,0,1-.22,0,.68.68,0,0,1-.44-.87,8.34,8.34,0,0,1,1.81-2.8,1.49,1.49,0,0,1,1.53-.55,1.43,1.43,0,0,1,.59.36,7.6,7.6,0,0,1,.9-1.06,2.21,2.21,0,0,1,1.85-.73,2.54,2.54,0,0,1,1.17.51,5.82,5.82,0,0,1,2.85-2.33c.34-.17.65-.33.92-.5a.7.7,0,0,1,1,.22.68.68,0,0,1-.21.95,11.27,11.27,0,0,1-1.05.57c-1.43.72-2.38,1.29-2.41,2.53a.7.7,0,0,1-1.29.34c-.13-.22-.62-.85-1.11-.91-.08,0-.33,0-.7.33-1.07,1.08-1.11,1.67-1.11,1.74h0a.69.69,0,0,1-1.34.32.62.62,0,0,1,0-.1,2.3,2.3,0,0,0-.36-.88l-.16.15a7.35,7.35,0,0,0-1.5,2.28A.67.67,0,0,1,254.61,46Z"/><circle class="cls-4" cx="167.96" cy="15.27" r="1.71"/><circle class="cls-5" cx="115.26" cy="46.68" r="1.71"/><path class="cls-5" d="M275.4,33.31a.53.53,0,0,0,.61-.25,25.94,25.94,0,0,0,1.08-2.47c.05-.16.1-.19.1-.19s.65.29,1,.72a.51.51,0,0,0,.66.11.52.52,0,0,0,.21-.64c-.38-.93-.46-1.87-.25-2s1.44,1.05,2.28,2.23a.52.52,0,0,0,.91-.47,3.82,3.82,0,0,1,.41-2.45,2.1,2.1,0,0,1,1.22-1.13c.28-.08.41-.06.44,0a1.66,1.66,0,0,1-.12,1,.53.53,0,0,0,.29.68.54.54,0,0,0,.68-.3c.09-.23.5-1.4-.08-2.05a1.37,1.37,0,0,0-1.49-.26,3.07,3.07,0,0,0-1.86,1.65A5.82,5.82,0,0,0,281,29c-.81-.91-1.81-1.7-2.59-1.35a1.59,1.59,0,0,0-.68,1.79,1.34,1.34,0,0,0-.71-.09,1.17,1.17,0,0,0-.9.85,24.34,24.34,0,0,1-1,2.34.52.52,0,0,0,.21.71Z"/><path class="cls-4" d="M281.35,66.92a.42.42,0,0,0-.51-.12A18.37,18.37,0,0,0,279,67.87a.36.36,0,0,1-.16.07,1.53,1.53,0,0,1-.31-1,.41.41,0,0,0-.81-.07c-.2.78-.59,1.42-.77,1.38a5.21,5.21,0,0,1-.4-2.51.41.41,0,0,0-.35-.41.42.42,0,0,0-.46.29A3,3,0,0,1,274.32,67a1.67,1.67,0,0,1-1.31.15c-.22-.09-.29-.16-.3-.19s.27-.39.53-.56a.41.41,0,0,0,.13-.57.42.42,0,0,0-.57-.13c-.16.11-1,.66-.91,1.35,0,.26.19.63.82.87a2.44,2.44,0,0,0,2-.18,4.49,4.49,0,0,0,1.08-.76c.09,1,.35,2,1,2.09s1-.32,1.28-.82a1,1,0,0,0,.41.39.94.94,0,0,0,1-.12,20,20,0,0,1,1.76-1,.4.4,0,0,0,.19-.55A.25.25,0,0,0,281.35,66.92Z"/><path class="cls-4" d="M295,83.14a.4.4,0,0,1,.51-.13,21,21,0,0,1,1.85,1.07.36.36,0,0,0,.15.07,1.57,1.57,0,0,0,.32-.94.4.4,0,0,1,.37-.38.41.41,0,0,1,.44.31c.2.77.59,1.41.76,1.37a5.09,5.09,0,0,0,.41-2.5.41.41,0,0,1,.8-.13A3,3,0,0,0,302,83.25a1.66,1.66,0,0,0,1.31.15.66.66,0,0,0,.3-.18c0-.11-.28-.4-.54-.57a.42.42,0,0,1-.13-.57.43.43,0,0,1,.57-.13c.17.11,1,.66.92,1.35,0,.26-.19.63-.82.87a2.4,2.4,0,0,1-2-.18,4.3,4.3,0,0,1-1.08-.76c-.09,1-.36,2-1,2.09s-1-.32-1.28-.82a1.1,1.1,0,0,1-.41.39.94.94,0,0,1-1-.12c-.94-.61-1.76-1-1.76-1a.41.41,0,0,1-.2-.55Z"/><circle class="cls-5" cx="281.81" cy="46.68" r="1.71"/><path class="cls-8" d="M99.41,125.23c17.68,32.8,35.78,67.11,37,104.35.09,2.65.07,5.4-1.06,7.8-2.05,4.33-7.05,6.28-11.63,7.67A200.91,200.91,0,0,1,78,253.3c-7.63.47-15.41.5-22.77-1.56-8-2.24-15.26-6.88-21.49-12.43C14,221.71,3.91,195.27,1,169s.74-52.8,4.43-79c3.17-22.48,7.07-62.58,39.29-42C70.1,64.1,85.66,99.71,99.41,125.23Z"/><path class="cls-6" d="M308.71,125.23c-17.68,32.8-35.78,67.11-37,104.35-.08,2.65-.06,5.4,1.07,7.8,2.05,4.33,7,6.28,11.62,7.67a201.11,201.11,0,0,0,45.76,8.25c7.63.47,15.41.5,22.78-1.56,8-2.24,15.25-6.88,21.48-12.43,19.74-17.6,29.81-44,32.68-70.33s-.74-52.8-4.44-79c-3.17-22.48-7.06-62.58-39.28-42C338,64.1,322.46,99.71,308.71,125.23Z"/></g></g></svg>