<svg xmlns="http://www.w3.org/2000/svg" viewBox="0 0 268.92 211.45"><defs><style>.cls-1{fill:#758d94;}.cls-2{fill:#20383f;}.cls-3{fill:#2d374a;}.cls-11,.cls-14,.cls-4,.cls-5,.cls-6{fill:none;}.cls-4{stroke:#2d3982;stroke-width:0.3px;}.cls-11,.cls-14,.cls-4,.cls-6{stroke-miterlimit:10;}.cls-5,.cls-6{stroke:#2d374a;stroke-width:2.89px;}.cls-5{stroke-linecap:round;stroke-linejoin:round;}.cls-7{fill:#ffba08;}.cls-8{fill:#30545e;}.cls-9{fill:#ff7976;}.cls-10{fill:#2d3958;}.cls-11{stroke:#fff;stroke-width:0.24px;}.cls-12{fill:#fff;}.cls-13{fill:#e9e9e9;}.cls-14{stroke:#000;stroke-width:0.5px;}</style></defs><g id="Layer_2" data-name="Layer 2"><g id="_2" data-name="2"><path class="cls-1" d="M85.82,80c0-21.91-17.54-56.82-39.45-56.82S6.5,58.06,6.5,80a39.66,39.66,0,0,0,79.32,0Z"/><path class="cls-2" d="M58.21,96.28a.48.48,0,1,0-1-.11c-.48,4.1-8.06,10.29-10.58,12.24,0-7.37.09-14.36.16-20.74.89-1,6.09-6.68,6.45-9.23a.49.49,0,0,0-.41-.54.46.46,0,0,0-.53.4C52.1,80,48.83,84,46.86,86.24c.06-4.75.13-9.14.21-13.08v0c.25-11.64.62-19.31,1.14-20.44a.48.48,0,0,0-.23-.63.49.49,0,0,0-.64.23c-.54,1.18-.91,8.47-1.17,19.33-1.4-2.11-4.11-6.6-4.11-9.71a.48.48,0,0,0-.48-.47.47.47,0,0,0-.47.47c0,4.21,4.33,10.38,5,11.34C46,77.53,46,82.32,45.9,87.48v0l0,2.28c-2.07-1.74-6-5.31-6.18-6.93a.5.5,0,0,0-.54-.41.48.48,0,0,0-.41.54c.32,2.48,6.42,7.46,7.12,8h0c0,3.88-.07,7.93-.1,12.1-1.42-.66-4.25-2.28-4.37-3.77a.48.48,0,0,0-1,.08c.2,2.46,4.75,4.49,5.27,4.71h0q0,2.51,0,5.07a.5.5,0,0,0,0,.38c-.2,43.95.24,97.67.28,101.39a.47.47,0,0,0,.47.47h0A.47.47,0,0,0,47,211c-.24-27.52-.43-68.14-.28-101.36C48.33,108.38,57.63,101.22,58.21,96.28Z"/><path class="cls-1" d="M268.92,63.8c0-24.59-19.69-63.8-44.29-63.8s-44.78,39.21-44.78,63.8a44.54,44.54,0,1,0,89.07,0Z"/><path class="cls-2" d="M237.92,82.12a.54.54,0,0,0-.47-.59.52.52,0,0,0-.59.47c-.54,4.6-9.06,11.55-11.89,13.74,0-8.28.1-16.12.19-23.29,1-1.07,6.83-7.5,7.23-10.37a.53.53,0,0,0-.45-.6.55.55,0,0,0-.61.45c-.27,2-4,6.43-6.16,8.91.07-5.33.15-10.26.24-14.68v0c.28-13.08.69-21.69,1.28-23a.53.53,0,0,0-1-.44c-.61,1.31-1,9.51-1.32,21.7-1.57-2.37-4.62-7.42-4.62-10.9a.54.54,0,1,0-1.07,0c0,4.72,4.87,11.65,5.65,12.73-.11,4.81-.19,10.19-.26,16v0c0,.84,0,1.7,0,2.56-2.33-2-6.72-6-6.95-7.78a.55.55,0,0,0-.6-.46.54.54,0,0,0-.46.6c.36,2.79,7.21,8.38,8,9h0c0,4.36-.08,8.9-.11,13.59-1.6-.74-4.77-2.56-4.91-4.23a.53.53,0,0,0-.58-.49.54.54,0,0,0-.49.58c.23,2.76,5.34,5,5.92,5.29h.06c0,1.88,0,3.77,0,5.69a.51.51,0,0,0,0,.42c-.22,49.36.28,109.68.31,113.86a.54.54,0,0,0,.54.53h0a.52.52,0,0,0,.53-.54C225,180,224.8,134.39,225,97.09,226.82,95.7,237.27,87.67,237.92,82.12Z"/><path class="cls-3" d="M46.16,211A46.16,46.16,0,1,1,92.31,164.8,46.21,46.21,0,0,1,46.16,211Zm0-89.42A43.27,43.27,0,1,0,89.43,164.8,43.32,43.32,0,0,0,46.16,121.53Z"/><line class="cls-4" x1="46.16" y1="151.18" x2="46.16" y2="129.44"/><line class="cls-4" x1="59.77" y1="164.8" x2="73.92" y2="164.8"/><line class="cls-4" x1="46.16" y1="170.34" x2="46.16" y2="191.72"/><line class="cls-4" x1="32.54" y1="164.8" x2="20.24" y2="164.8"/><line class="cls-4" x1="49.75" y1="161.2" x2="69.49" y2="141.47"/><line class="cls-4" x1="48.69" y1="167.33" x2="63.83" y2="182.47"/><line class="cls-4" x1="41.36" y1="169.6" x2="31.16" y2="179.79"/><line class="cls-4" x1="41.75" y1="160.38" x2="25.35" y2="143.99"/><line class="cls-4" x1="194.4" y1="164.8" x2="182.1" y2="164.8"/><path class="cls-3" d="M208,211a46.16,46.16,0,1,1,46.16-46.15A46.21,46.21,0,0,1,208,211Zm0-89.42a43.27,43.27,0,1,0,43.27,43.27A43.32,43.32,0,0,0,208,121.53Z"/><line class="cls-4" x1="208.02" y1="151.18" x2="208.02" y2="129.44"/><line class="cls-4" x1="221.63" y1="164.8" x2="235.78" y2="164.8"/><line class="cls-4" x1="208.02" y1="170.34" x2="208.02" y2="191.72"/><line class="cls-4" x1="211.61" y1="161.2" x2="231.35" y2="141.47"/><line class="cls-4" x1="210.55" y1="167.33" x2="225.7" y2="182.47"/><line class="cls-4" x1="203.22" y1="169.6" x2="193.02" y2="179.79"/><line class="cls-4" x1="203.61" y1="160.38" x2="187.21" y2="143.99"/><path class="cls-3" d="M46.65,164.91a1.55,1.55,0,0,1-.56-.11,1.44,1.44,0,0,1-.77-1.89L79,82.7a1.52,1.52,0,0,1,.17-.3l5.71-7.69a1.45,1.45,0,0,1,2.32,1.73L81.57,84,48,164A1.44,1.44,0,0,1,46.65,164.91Z"/><circle class="cls-3" cx="86.02" cy="75.57" r="2.89"/><path class="cls-3" d="M133.33,168.32h-3.86a1.43,1.43,0,0,1-1-.39L68,111.24a1.43,1.43,0,0,1-.34-1.61l3.43-8.18a1.44,1.44,0,0,1,1.33-.88h93.89a1.44,1.44,0,0,1,1.29,2.09l-33,64.87A1.47,1.47,0,0,1,133.33,168.32ZM130,165.43h2.4l31.54-62H73.4l-2.67,6.37Z"/><path class="cls-3" d="M133.33,168.32a1.48,1.48,0,0,1-1.22-.67,1.46,1.46,0,0,1-.07-1.43l33-64.86a1.45,1.45,0,0,1,1.22-.79,1.43,1.43,0,0,1,1.28.66L208.12,164a1.44,1.44,0,0,1-1.17,2.23l-73.58,2.08Zm33.15-63.42-30.76,60.46,68.59-1.93Z"/><circle class="cls-3" cx="129.47" cy="165.91" r="3.86"/><circle class="cls-5" cx="129.47" cy="165.91" r="11.78"/><line class="cls-6" x1="129.47" y1="166.87" x2="136.24" y2="183.08"/><rect class="cls-7" x="130.21" y="183.09" width="12.07" height="3.5"/><line class="cls-6" x1="129.47" y1="166.87" x2="122.55" y2="149.7"/><rect class="cls-7" x="116.9" y="147.07" width="12.07" height="3.5" transform="translate(247.72 296.09) rotate(179.28)"/><path class="cls-8" d="M187.26,87.27A14.74,14.74,0,0,1,172.52,102H120.68a10.14,10.14,0,0,1,0-20.27h61a5.51,5.51,0,0,1,5.53,5.53Z"/><polygon class="cls-9" points="126.77 147.35 119.83 147.35 114.48 123.83 126.77 123.83 126.77 147.35"/><path class="cls-10" d="M105.21,147.35h21.56v-7.63l-8.67,0-7.5,3.61a17.75,17.75,0,0,0-5.39,4Z"/><polygon class="cls-9" points="144.11 184.51 137.17 184.64 131.38 161.22 143.66 160.99 144.11 184.51"/><path class="cls-10" d="M122.55,184.92l21.56-.41-.15-7.64-8.66.2-7.43,3.75a17.89,17.89,0,0,0-5.32,4.1Z"/><path class="cls-8" d="M130.81,91.87c0,.22,0,.44,0,.65l-1.92,36.92h-16.4l-1.92-37.62a10.13,10.13,0,0,1,20.26.05Z"/><path class="cls-8" d="M189.2,85.65a14.74,14.74,0,0,1-3.72,20.51l-42.61,29.52A10.14,10.14,0,0,1,131.32,119l50.19-34.77a5.51,5.51,0,0,1,7.69,1.4Z"/><path class="cls-8" d="M147.1,129c0,.22,0,.44,0,.65l-1.22,36.95-16.4.31-2.64-37.58A10.14,10.14,0,0,1,147.1,129Z"/><path class="cls-11" d="M184.35,87.23c-1.72,3.77-4.56,6.9-7.51,9.81a121.21,121.21,0,0,1-24.63,18.77c-5.15,3-10.79,5.82-13.8,10.93a22.14,22.14,0,0,0-1.6,3.42c-3.4,8.77-1,18.53.93,27.72"/><path class="cls-12" d="M144.78,31.46c-1.11.53-2.43,2.16-3.15,2.81l-4.86,4.32Q132,42.84,127.14,47l-2.28,2c-2.54,2.13,7,14.57,7,14.57,3.92-1.79,7.82-3.63,11.65-5.6,3.3-1.7,7.05-3.27,9.62-6a14.34,14.34,0,0,0,3.52-7.47c.57-3.68-1.34-6.75-4.08-9.05a25.17,25.17,0,0,0-3.66-2.5c-.93-.54-2.44-1.77-3.57-1.64A1.41,1.41,0,0,0,144.78,31.46Z"/><path class="cls-9" d="M96.48,63.18l7-2.67c5.77-2.2,11.6-4.45,16.62-8a7.35,7.35,0,0,1,3.74-1.8,4.47,4.47,0,0,1,3.66,2,12.85,12.85,0,0,1,1.72,4c.39,1.29.74,2.83-.12,3.87a4.19,4.19,0,0,1-1.76,1.07L114,66.9c-1.21.48-2.43,1-3.68,1.32s-2.63.63-4,.88l-10.47,2c-3.74.71-7.72,1.54-10.42,4.23a3.8,3.8,0,0,1-1.7,1.26,2.12,2.12,0,0,1-2.34-1.76,4.47,4.47,0,0,1,.76-3.1C85.18,66.62,91.32,65.16,96.48,63.18Z"/><path class="cls-9" d="M150.76,22.56c-.7,2.48-2.29,5.08-2.57,7.66v0c-.33,3.25-5.94,2.88-5.94,2.88l-2.32-2.88c-4-.93-5.16-7-5.16-7.76s-1.12-1.07-1.12-1.07l1.36-2.7c.25-.36.14-1.6.25-2.08a10.6,10.6,0,0,1,1-2.71,11.13,11.13,0,0,1,4.76-4.84A10,10,0,0,1,143,8.87a15.14,15.14,0,0,1,2.62.12,9.09,9.09,0,0,1,4.55,3.3C152.25,15.29,151.68,19.25,150.76,22.56Z"/><path class="cls-13" d="M151.8,30.92c3.32,1.84,6.69,3.7,9.22,6.59,3,3.42,5.78,7,8.84,10.41,6.88,7.59,14.36,15,23.13,20.41,1,.65,2.11,1.26,3.19,1.82,0,0-7.69,18.92-21.7,26.78,0,0-18.83-9.91-26.28-21.7S140,60.82,140,60.81c-.44-1.53-1.2-3-1.68-4.55a37.55,37.55,0,0,1-1.84-10.13A16.57,16.57,0,0,1,138.08,38C140.2,33.91,147,28.28,151.8,30.92Z"/><path class="cls-13" d="M144.78,31.46c-1.11.53-2.43,2.16-3.15,2.81l-4.86,4.32Q132,42.84,127.14,47l-2.28,2c-2.54,2.13,7,14.57,7,14.57,3.92-1.79,7.82-3.63,11.65-5.6,3.3-1.7,7.05-3.27,9.62-6a14.34,14.34,0,0,0,3.52-7.47c.57-3.68-1.34-6.75-4.08-9.05a25.17,25.17,0,0,0-3.66-2.5c-.93-.54-2.44-1.77-3.57-1.64A1.41,1.41,0,0,0,144.78,31.46Z"/><path class="cls-9" d="M96.48,63.18l7-2.67c5.77-2.2,11.6-4.45,16.62-8a7.35,7.35,0,0,1,3.74-1.8,4.47,4.47,0,0,1,3.66,2,12.85,12.85,0,0,1,1.72,4c.39,1.29.74,2.83-.12,3.87a4.19,4.19,0,0,1-1.76,1.07L114,66.9c-1.21.48-2.43,1-3.68,1.32s-2.63.63-4,.88l-10.47,2c-3.74.71-7.72,1.54-10.42,4.23a3.8,3.8,0,0,1-1.7,1.26,2.12,2.12,0,0,1-2.34-1.76,4.47,4.47,0,0,1,.76-3.1C85.18,66.62,91.32,65.16,96.48,63.18Z"/><path class="cls-11" d="M157.28,89.28c-9.94,1.08-20,.65-30,.2-2.07-.09-4.4-.1-5.89,1.34a6.68,6.68,0,0,0-1.57,2.9c-2.69,8.45-.76,17.61-1.41,26.46"/><path class="cls-2" d="M189.38,53.81a6.59,6.59,0,0,1-.47,1.33A14.2,14.2,0,0,1,186,59.37c-.48.48-1.15,1.31-1.8,1.49a3.51,3.51,0,0,1-2.45-.81,15.69,15.69,0,0,1-2.61-3,40.52,40.52,0,0,0-4.2-4.19A77.1,77.1,0,0,1,166.81,44a37.61,37.61,0,0,0-4.71-5.43,31.17,31.17,0,0,0-4.61-3.09c-1.88-1.09-4-2.11-5.86-3.15a38.91,38.91,0,0,1-3.44-2.09A11.87,11.87,0,0,1,145,27.1a5.94,5.94,0,0,1-.59-6.06,4.94,4.94,0,0,0,.85-1.72,1.65,1.65,0,0,0-1.81-1.78,3.75,3.75,0,0,0-.67.22,6.15,6.15,0,0,1-2.37.31,2.2,2.2,0,0,1-.93-.23,2.7,2.7,0,0,1-.75-.68c-.45-.52-.9-1.05-1.36-1.57a5.17,5.17,0,0,1-1.1-1.66,2,2,0,0,1-.12-.47,2.87,2.87,0,0,1,.73-2.1A6.94,6.94,0,0,1,138.7,10a7.17,7.17,0,0,1,2.36-.88A10,10,0,0,1,143,8.87a15.14,15.14,0,0,1,2.62.12,9.19,9.19,0,0,1,2.31.63,7.53,7.53,0,0,1,1.68,1,36.15,36.15,0,0,1,4.18,3.55c1.81,1.87,3.4,4,5.38,5.67a36.62,36.62,0,0,0,5.73,3.78L173,28.21c3.82,2.17,7.79,3.82,11.19,6.68a20.82,20.82,0,0,1,1.6,1.51,14.53,14.53,0,0,1,3.22,7,44,44,0,0,1,.57,7.78A10,10,0,0,1,189.38,53.81Z"/><line class="cls-14" x1="29.79" y1="211.05" x2="235.37" y2="211.05"/></g></g></svg>