<svg width="21" height="21" viewBox="0 0 21 21" fill="none" xmlns="http://www.w3.org/2000/svg">
<path d="M14.5142 15.5383C14.6555 15.6796 14.8321 15.7502 15.0263 15.7502C15.2205 15.7502 15.3971 15.6796 15.5384 15.5383L20.3058 10.7709C20.3411 10.7356 20.3764 10.7002 20.3941 10.6649C20.3941 10.6649 20.4117 10.6473 20.4117 10.6296C20.4294 10.5943 20.4471 10.559 20.4647 10.5413C20.4647 10.5237 20.4647 10.506 20.4824 10.506C20.5 10.4707 20.5 10.453 20.5177 10.4177C20.5353 10.3648 20.5353 10.3294 20.5353 10.2765C20.5353 10.2235 20.5353 10.1882 20.5177 10.1352C20.5177 10.0999 20.5 10.0646 20.4824 10.0469C20.4824 10.0293 20.4824 10.0116 20.4647 10.0116C20.4471 9.9763 20.4294 9.94098 20.4117 9.90567C20.4117 9.90567 20.4117 9.88801 20.3941 9.88801C20.3764 9.8527 20.3411 9.81738 20.3058 9.78207L15.5384 5.01462C15.2558 4.73211 14.7968 4.73211 14.5142 5.01462C14.2317 5.29714 14.2317 5.75622 14.5142 6.03874L18.0457 9.57018H5.4914C5.08529 9.57018 4.76746 9.88801 4.76746 10.2941C4.76746 10.7002 5.08529 11.0181 5.4914 11.0181H18.0457L14.5142 14.5495C14.2317 14.7967 14.2317 15.2558 14.5142 15.5383Z" fill="#EC6551"/>
<path d="M0.723946 20.5H10.2588C10.665 20.5 10.9828 20.1822 10.9828 19.7761V15.6602C10.9828 15.2541 10.665 14.9363 10.2588 14.9363C9.85272 14.9363 9.53489 15.2541 9.53489 15.6602V19.0521H1.44789V1.44789H9.53489V4.8398C9.53489 5.24592 9.85272 5.56375 10.2588 5.56375C10.665 5.56375 10.9828 5.24592 10.9828 4.8398V0.723946C10.9828 0.31783 10.665 0 10.2588 0H0.723946C0.31783 0 0 0.31783 0 0.723946V19.7761C0.0176572 20.1822 0.335487 20.5 0.723946 20.5Z" fill="#4B6971"/>
</svg>
