<svg width="291" height="78" viewBox="0 0 291 78" fill="none" xmlns="http://www.w3.org/2000/svg">
<path d="M112.788 59.3167C115.456 59.1502 118.029 58.2656 120.235 56.7565C125.149 53.3704 127.695 47.5066 127.695 39.0137C127.695 30.5209 124.943 24.6571 119.574 21.3398C117.118 19.7924 114.31 18.8926 111.412 18.7245H100.4V59.3167H112.788ZM98.5004 62.9506C98.2565 62.9525 98.0147 62.9056 97.7892 62.8127C97.5637 62.7198 97.359 62.5828 97.1872 62.4096C97.0153 62.2365 96.8798 62.0308 96.7886 61.8046C96.6974 61.5784 96.6523 61.3363 96.656 61.0924V16.9351C96.6541 16.6924 96.7006 16.4517 96.7926 16.2271C96.8847 16.0025 97.0205 15.7984 97.1921 15.6268C97.3638 15.4551 97.5678 15.3193 97.7924 15.2273C98.017 15.1353 98.2577 15.0888 98.5004 15.0906H111.412C114.966 15.2473 118.427 16.278 121.488 18.0913C124.375 19.9034 126.746 22.4305 128.37 25.4279C130.466 29.6432 131.496 34.3079 131.371 39.0137C131.538 43.7006 130.595 48.3607 128.618 52.6133C127.145 55.5506 124.935 58.0549 122.203 59.8811C119.386 61.7069 116.14 62.765 112.788 62.9506H98.5004Z" fill="#A9A9AA"/>
<path d="M143.538 61.0924V16.9351C143.538 16.4386 143.736 15.9624 144.087 15.6114C144.438 15.2603 144.914 15.0631 145.41 15.0631C145.907 15.0631 146.383 15.2603 146.734 15.6114C147.085 15.9624 147.282 16.4386 147.282 16.9351V61.0924C147.282 61.5888 147.085 62.065 146.734 62.4161C146.383 62.7671 145.907 62.9644 145.41 62.9644C144.914 62.9644 144.438 62.7671 144.087 62.4161C143.736 62.065 143.538 61.5888 143.538 61.0924Z" fill="#A9A9AA"/>
<path d="M168.948 22.8126C166.457 26.006 165.218 31.2917 165.218 39.0137C165.218 46.7357 166.594 51.9113 169.21 55.2286C171.563 58.1329 175.307 59.5094 180.469 59.5094C185.631 59.5094 189.182 57.9815 191.674 54.7881C194.165 51.5947 195.597 46.1025 195.597 39.0825C195.597 31.8147 194.427 26.6943 192.004 23.3907C189.581 20.0872 185.837 18.6694 180.469 18.6694C175.101 18.6694 171.247 20.0459 168.948 22.8814V22.8126ZM166.47 57.5273C163.139 53.6319 161.501 47.5754 161.501 39.0137C161.443 35.3486 161.817 31.6894 162.616 28.112C163.14 25.3357 164.33 22.7283 166.085 20.5139C167.715 18.5481 169.838 17.0516 172.238 16.178C174.888 15.2441 177.688 14.8101 180.497 14.8979C183.328 14.7987 186.147 15.3202 188.755 16.4258C191.188 17.3619 193.326 18.9299 194.95 20.9681C197.895 24.9186 199.327 30.7962 199.327 38.9586C199.369 42.482 198.995 45.9981 198.212 49.4336C197.532 52.202 196.26 54.7898 194.482 57.018C191.343 61.0373 186.622 63.0882 180.469 63.0882C174.316 63.0882 169.54 61.23 166.457 57.4722" fill="#A9A9AA"/>
<path d="M244.31 31.4294C244.276 30.3515 244.123 29.2807 243.856 28.2359C243.341 25.9874 242.178 23.9391 240.511 22.3446C237.965 19.7844 234.303 18.5731 229.499 18.5731C215.735 18.5731 214.578 29.1031 214.578 39.055C214.578 42.4411 214.578 47.8644 216.533 52.2692C218.777 57.1419 223.03 59.5094 229.513 59.5094C235.735 59.5094 240.126 57.3346 242.479 52.9987C243.591 50.957 244.217 48.6868 244.31 46.3641C244.335 45.8662 244.556 45.3985 244.925 45.0632C245.294 44.7278 245.78 44.5522 246.278 44.5747C246.518 44.5653 246.757 44.6048 246.98 44.6909C247.204 44.777 247.408 44.9077 247.579 45.0752C247.75 45.2427 247.886 45.4434 247.977 45.665C248.068 45.8866 248.113 46.1245 248.109 46.3641C248.014 49.3117 247.231 52.1963 245.824 54.7881C243.663 58.6147 239.148 63.1984 229.513 63.1984C225.775 63.3429 222.074 62.4164 218.845 60.528C216.351 58.7814 214.361 56.4073 213.078 53.6456C210.793 48.594 210.793 42.6338 210.793 38.9587C210.793 35.077 210.793 29.3233 213.023 24.2855C214.274 21.5075 216.264 19.1268 218.777 17.4031C222.019 15.4796 225.745 14.5243 229.513 14.6501C235.349 14.6501 239.988 16.3157 243.278 19.5091C246.295 22.6851 248.023 26.8706 248.123 31.2504V31.2504C248.125 31.4895 248.079 31.7264 247.987 31.9471C247.895 32.1679 247.759 32.3678 247.589 32.5348C247.418 32.7019 247.215 32.8328 246.992 32.9196C246.769 33.0063 246.531 33.0472 246.292 33.0398C246.042 33.049 245.792 33.0085 245.557 32.9206C245.322 32.8327 245.107 32.6991 244.924 32.5277C244.741 32.3562 244.594 32.1502 244.491 31.9215C244.388 31.6928 244.331 31.446 244.324 31.1954" fill="#A9A9AA"/>
<path d="M290.147 50.7C290.226 53.1586 289.615 55.5902 288.385 57.7201C287.236 59.4083 285.652 60.7544 283.801 61.6155C281.297 62.6846 278.594 63.2056 275.873 63.1434C268.55 63.1434 265.012 59.7572 263.374 56.9492C262.279 55.0399 261.652 52.8984 261.543 50.7C261.547 50.1984 261.746 49.7179 262.098 49.3606C262.45 49.0034 262.928 48.7975 263.429 48.7867C263.93 48.8041 264.405 49.0116 264.758 49.3671C265.111 49.7226 265.315 50.1993 265.329 50.7C265.403 52.2791 265.877 53.8136 266.705 55.1598C268.467 58.1055 271.482 59.5095 275.928 59.5095C283.003 59.5095 286.403 56.5638 286.403 50.7C286.403 45.2767 283.98 42.0145 279.08 41.0647C278.837 41.0298 278.604 40.9442 278.397 40.8136C278.19 40.6829 278.012 40.51 277.876 40.3062C277.739 40.1024 277.647 39.8722 277.606 39.6306C277.564 39.389 277.574 39.1413 277.634 38.9037C277.684 38.6635 277.782 38.436 277.923 38.235C278.064 38.0341 278.244 37.8641 278.453 37.7352C278.662 37.6064 278.895 37.5214 279.137 37.4857C279.38 37.4499 279.627 37.464 279.864 37.5272C282.029 37.8469 284.066 38.7511 285.756 40.1425C287.173 41.209 288.28 42.6345 288.963 44.2719C289.831 46.3062 290.253 48.5027 290.202 50.7138L290.147 50.7ZM288.371 29.6538C288.128 29.663 287.886 29.6238 287.659 29.5385C287.431 29.4532 287.223 29.3235 287.046 29.1569C286.87 28.9904 286.728 28.7903 286.629 28.5684C286.53 28.3465 286.477 28.1072 286.471 27.8644C286.352 26.1891 285.883 24.5575 285.095 23.0742C283.388 20.1423 280.25 18.5456 275.928 18.5456C267.283 18.5456 265.439 23.6523 265.439 27.7955C265.439 31.5671 266.815 36.2195 273.56 37.0592C274.037 37.1244 274.469 37.3746 274.763 37.7559C275.056 38.1372 275.188 38.6187 275.129 39.0964C275.064 39.5367 274.844 39.9394 274.508 40.232C274.173 40.5246 273.744 40.6881 273.299 40.6931C273.206 40.7013 273.114 40.6769 273.037 40.6243C270.704 40.4766 268.459 39.6805 266.554 38.3256C265.059 37.273 263.864 35.85 263.085 34.1961C262.113 32.1867 261.64 29.9719 261.709 27.7405C261.702 26.8192 261.766 25.8988 261.901 24.9875C262.172 23.4312 262.728 21.9381 263.539 20.5828C264.622 18.8303 266.158 17.4034 267.985 16.4534C270.494 15.3126 273.227 14.7482 275.983 14.8016C283.25 14.8016 286.774 18.3116 288.481 21.2435C289.574 23.2035 290.2 25.389 290.312 27.6304V27.6304C290.312 28.1185 290.12 28.587 289.777 28.9347C289.435 29.2824 288.969 29.4814 288.481 29.4886" fill="#A9A9AA"/>
<path d="M62.7946 39.0138C62.7946 43.7971 61.3762 48.4729 58.7187 52.4501C56.0613 56.4272 52.2842 59.527 47.865 61.3575C43.4458 63.188 38.5831 63.6669 33.8918 62.7337C29.2004 61.8006 24.8911 59.4972 21.5088 56.1149C18.1265 52.7326 15.8232 48.4234 14.89 43.732C13.9568 39.0406 14.4358 34.1779 16.2663 29.7587C18.0967 25.3396 21.1965 21.5625 25.1737 18.905C29.1508 16.2476 33.8267 14.8292 38.6099 14.8292C41.7864 14.8274 44.9321 15.4517 47.8671 16.6664C50.8022 17.8812 53.469 19.6625 55.7151 21.9086C57.9612 24.1548 59.7426 26.8216 60.9573 29.7566C62.1721 32.6916 62.7964 35.8373 62.7946 39.0138" fill="#ED725F"/>
<path d="M19.2706 9.95642C19.2706 11.8586 18.7075 13.7182 17.6523 15.3008C16.5972 16.8835 15.0972 18.1185 13.3414 18.8501C11.5856 19.5818 9.65251 19.7773 7.78573 19.4122C5.91895 19.0471 4.20201 18.1375 2.85126 16.7983C1.50051 15.459 0.576378 13.7499 0.195323 11.8863C-0.185732 10.0227 -0.00666453 8.08801 0.709962 6.32601C1.42659 4.56401 2.64871 3.05355 4.22233 1.98494C5.79594 0.916339 7.65065 0.33741 9.55273 0.321106C12.1082 0.321106 14.559 1.33625 16.3659 3.14322C18.1729 4.9502 19.188 7.40098 19.188 9.95642" fill="#4B6971"/>
<path d="M77.3163 68.0436C77.3163 69.9493 76.7512 71.8122 75.6924 73.3967C74.6337 74.9813 73.1289 76.2162 71.3682 76.9455C69.6076 77.6748 67.6703 77.8656 65.8012 77.4938C63.9322 77.122 62.2153 76.2044 60.8678 74.8568C59.5203 73.5093 58.6026 71.7925 58.2308 69.9234C57.859 68.0543 58.0498 66.117 58.7791 64.3564C59.5084 62.5957 60.7434 61.0909 62.3279 60.0322C63.9124 58.9734 65.7753 58.4083 67.681 58.4083C70.2364 58.4083 72.6872 59.4235 74.4942 61.2304C76.3011 63.0374 77.3163 65.4882 77.3163 68.0436Z" fill="#4B6971"/>
</svg>
