<svg xmlns="http://www.w3.org/2000/svg" viewBox="0 0 173.51 198.76"><defs><style>.cls-1{fill:none;stroke:#000;stroke-linecap:round;stroke-linejoin:round;stroke-width:6px;}.cls-2{fill:#ec6551;}</style></defs><g id="Layer_2" data-name="Layer 2"><g id="Capa_1" data-name="Capa 1"><polygon class="cls-1" points="135.78 195.76 38.63 195.76 41.4 177.51 132.2 177.51 135.78 195.76"/><path class="cls-1" d="M122.23,168.52c.72,3-.17,6,.36,8.94a75.35,75.35,0,0,1-8.37,0H51c0-2.47-.06-4.95,0-7.43s1.57-3.81,3-5.78q4.34-6,8.31-12.31,3.87-6.11,7.36-12.44,1.8-3.26,3.49-6.55c.78-1.54,3.12-4.61,3.12-6.31,0-.15-6-4.55-6.51-5q-3.24-2.66-6.3-5.52A133.58,133.58,0,0,1,52,104,135.28,135.28,0,0,1,34.05,75.77C27,60.78,24.32,45.05,22.7,29c-.63-6.33-1.11-12.72-1.62-19.13A6.35,6.35,0,0,1,27.41,3h118.7a6.35,6.35,0,0,1,6.33,6.86c-.51,6.41-1,12.8-1.62,19.13-1.62,16.06-4.28,31.79-11.35,46.78a132.84,132.84,0,0,1-9.59,17A133.09,133.09,0,0,1,121.53,104a133.58,133.58,0,0,1-11.48,12.19q-3.06,2.86-6.3,5.52c-.55.45-6.51,4.85-6.51,5a241.61,241.61,0,0,0,12,22.16q3.28,5.39,6.85,10.59c1.74,2.55,4.27,4.71,5.59,7.54A8.57,8.57,0,0,1,122.23,168.52Z"/><path class="cls-1" d="M43.63,92.73c-13.72,0-28.47-8.14-35.86-19.86C.6,61.49,2.25,44.37,7.84,32.53A6.24,6.24,0,0,1,13.5,29h9.2C24.32,45.05,27,60.78,34.05,75.77A134,134,0,0,0,43.63,92.73Z"/><path class="cls-1" d="M129.89,92.73c13.71,0,28.46-8.14,35.85-19.86,7.17-11.38,5.52-28.5-.07-40.34A6.24,6.24,0,0,0,160,29h-9.19c-1.62,16.06-4.28,31.79-11.35,46.78A134,134,0,0,1,129.89,92.73Z"/><polygon class="cls-2" points="86.76 33.2 95.07 50.04 113.65 52.74 100.2 65.84 103.38 84.35 86.76 75.61 70.13 84.35 73.31 65.84 59.86 52.74 78.44 50.04 86.76 33.2"/></g></g></svg>