<svg width="29" height="25" viewBox="0 0 29 25" fill="none" xmlns="http://www.w3.org/2000/svg">
<path fill-rule="evenodd" clip-rule="evenodd" d="M28.5554 3.72236C27.5096 4.19869 26.3835 4.52069 25.2022 4.66457C26.4084 3.9245 27.3341 2.75079 27.7702 1.35293C26.6408 2.03829 25.3928 2.53686 24.0594 2.80416C22.9969 1.64091 21.4781 0.914398 19.7973 0.914398C16.5744 0.914398 13.9597 3.5956 13.9597 6.90235C13.9597 7.37179 14.0097 7.82744 14.11 8.26619C9.25687 8.0158 4.95476 5.63436 2.07253 2.00738C1.56973 2.89489 1.2822 3.9245 1.2822 5.02104C1.2822 7.0976 2.31314 8.93066 3.88023 10.005C2.92468 9.97583 2.02227 9.70342 1.23372 9.258V9.3316C1.23372 12.2339 3.2469 14.6546 5.9201 15.203C5.43065 15.3436 4.91429 15.4138 4.38125 15.4138C4.00543 15.4138 3.63784 15.3778 3.28181 15.3076C4.02522 17.6857 6.1805 19.4178 8.73673 19.464C6.73845 21.0711 4.21913 22.0287 1.48411 22.0287C1.0129 22.0287 0.546794 22.0013 0.0906982 21.9464C2.67539 23.6425 5.7462 24.6345 9.0425 24.6345C19.7853 24.6345 25.6579 15.5112 25.6579 7.59773C25.6579 7.33732 25.6528 7.07692 25.6427 6.82163C26.7844 5.97704 27.7751 4.92342 28.5554 3.72236Z" fill="#00AAEC"/>
</svg>
